/* 
 * CenLa Innovations - Favicon
 * Created: May 28, 2025
 * 
 * Simple favicon based on the logo design
 */

<svg xmlns="http://www.w3.org/2000/svg" width="32" height="32" viewBox="0 0 32 32">
  <!-- Background Circle -->
  <circle cx="16" cy="16" r="16" fill="#1A4B84"/>
  
  <!-- Louisiana Shape -->
  <path d="M16,8 C14,9 13,11 12.5,13 C12,15 11,16 10,17 C9,18 8,19 7,21 C6,23 5,25 5.5,27 C6,29 7,30 9,30.5 C11,31 13,30.5 15,30 C17,29.5 19,29 21,29.5 C23,30 25,31 27,30.5 C29,30 30,28 30.5,26 C31,24 31.5,22 31,20 C30.5,18 29.5,17 28,16 C26.5,15 25,14.5 24,13 C23,11.5 22,10 20,9 C18,8 17,7.5 16,8 Z" fill="#00B2A9"/>
  
  <!-- Circuit Elements -->
  <circle cx="12" cy="18" r="1" fill="#F2A900"/>
  <circle cx="18" cy="14" r="1" fill="#F2A900"/>
  <circle cx="22" cy="22" r="1" fill="#F2A900"/>
  
  <path d="M12,18 L18,14 L22,22" stroke="#F2A900" stroke-width="1" fill="none"/>
</svg>
